#!OML:ASF H:\Terrain\Patient Classification 1\Animal2\Wednesday\Animal2.ASF
:FULLY-SPECIFIED
:DEGREES
1583
root 16.8419 15.6604 -0.486658 -134.222 -57.396 140.141
lowerback 5.00193 -7.52235 1.65105
upperback -1.09382 -10.3084 11.629
thorax -2.01012 -5.42888 12.1212
lowerneck 12.5129 17.2183 19.2854
upperneck -28.9913 19.6629 -38.4288
head -3.46833 11.0538 -17.1392
rclavicle 4.92986e-014 0
rhumerus -89.1567 -16.998 15.4296
rradius 11.8795
rwrist 32.8347
rhand -16.1045 4.28936
rfingers 7.12502
rthumb 10.0993 -25.4483
lclavicle 4.92986e-014 0
lhumerus 49.0884 46.9117 -2.41057
lradius 42.566
lwrist 58.7499
lhand -22.5709 23.6854
lfingers 7.12502
lthumb 3.85749 53.6303
rfemur -47.9177 16.464 -32.3858
rtibia 54.7449
rfoot -27.6162 -9.45094
rtoes -19.3323
lfemur -6.31531 10.5454 -23.7732
ltibia 35.0826
lfoot -29.8809 0.165172
ltoes -32.9712
1584
root 16.8492 15.6383 -0.424173 -134.869 -57.1522 140.596
lowerback 5.18373 -7.61056 1.65873
upperback -1.0113 -10.4094 11.4775
thorax -2.03595 -5.47461 11.9702
lowerneck 12.4604 17.2577 19.3887
upperneck -28.8671 19.8055 -38.2225
head -3.40464 11.098 -17.0119
rclavicle 8.90555e-014 5.40694e-014
rhumerus -90.419 -15.6388 16.776
rradius 11.9803
rwrist 32.2151
rhand -15.3357 3.33442
rfingers 7.12502
rthumb 10.841 -26.3658
lclavicle 8.90555e-014 5.40694e-014
lhumerus 50.0545 46.8311 -1.72889
lradius 42.2978
lwrist 58.2647
lhand -22.3431 23.5418
lfingers 7.12502
lthumb 4.07744 53.4825
rfemur -48.1475 16.9457 -32.6708
rtibia 54.7806
rfoot -27.4706 -10.0811
rtoes -20.5605
lfemur -6.57177 11.1692 -23.7797
ltibia 36.01
lfoot -30.0821 -1.59414
ltoes -30.0744
1585
root 16.8572 15.6156 -0.36616 -135.312 -56.9761 140.83
lowerback 4.53023 -6.86562 1.24607
upperback 0.541907 -9.78668 12.0364
thorax 0.033057 -5.32214 12.5552
lowerneck 6.87233 18.1863 15.972
upperneck -27.9655 19.6012 -37.7328
head -2.75076 10.6462 -15.4052
rclavicle 6.36111e-015 -1.01778e-013
rhumerus -94.0217 -17.3967 21.8357
rradius 11.9889
rwrist 33.0166
rhand -14.5675 2.01181
rfingers 7.12502
rthumb 11.5819 -27.6481
lclavicle 6.36111e-015 -1.01778e-013
lhumerus 51.8558 50.095 1.32094
lradius 42.2973
lwrist 57.689
lhand -22.1275 23.5056
lfingers 7.12502
lthumb 4.28564 53.4422
rfemur -48.2476 17.3644 -32.9726
rtibia 54.788
rfoot -27.5153 -10.3905
rtoes -21.4294
lfemur -6.85971 11.6848 -23.8157
ltibia 36.9571
lfoot -30.2419 -3.32187
ltoes -26.6242
1586
root 16.86 15.5923 -0.312858 -135.74 -56.8999 140.865
lowerback 4.4456 -6.78954 1.16908
upperback 0.940848 -9.77141 12.0883
thorax 0.524424 -5.35321 12.6082
lowerneck 5.77937 18.2673 14.995
upperneck -27.663 19.4377 -37.5408
head -2.68286 10.5063 -15.0471
rclavicle 2.8625e-014 1.55847e-013
rhumerus -95.8948 -16.5905 25.2009
rradius 11.7687
rwrist 34.2378
rhand -14.2633 1.27398
rfingers 7.12502
rthumb 11.8752 -28.3693
lclavicle 2.8625e-014 1.55847e-013
lhumerus 52.1869 50.6626 1.88743
lradius 42.4532
lwrist 57.6191
lhand -22.2896 23.8831
lfingers 7.12502
lthumb 4.12911 53.8228
rfemur -48.0688 17.7264 -33.1473
rtibia 54.7876
rfoot -27.4202 -10.6197
rtoes -21.482
lfemur -6.93934 12.1501 -23.8414
ltibia 37.9036
lfoot -30.5215 -4.25381
ltoes -24.7136
1587
root 16.8609 15.568 -0.262469 -135.844 -56.7824 140.718
lowerback 4.36534 -6.95689 0.965821
upperback 0.954507 -10.0064 12.0096
thorax 0.652308 -5.47392 12.6165
lowerneck 6.07097 18.233 14.846
upperneck -27.6727 19.3949 -37.4811
head -2.78161 10.5216 -15.058
rclavicle 1.52667e-013 6.67916e-014
rhumerus -96.7801 -15.2142 27.5303
rradius 11.4905
rwrist 35.8329
rhand -14.3476 0.49643
rfingers 7.12502
rthumb 11.7939 -29.1515
lclavicle 1.52667e-013 6.67916e-014
lhumerus 52.4374 50.5767 2.12903
lradius 42.4022
lwrist 57.3133
lhand -22.2152 24.0868
lfingers 7.12502
lthumb 4.201 54.0251
rfemur -47.9808 17.8152 -33.427
rtibia 54.7785
rfoot -27.2654 -10.7767
rtoes -20.9744
lfemur -7.21631 12.6397 -24.0488
ltibia 38.8212
lfoot -30.7296 -4.97915
ltoes -22.1467
1588
root 16.8677 15.5448 -0.21429 -135.776 -56.63 140.457
lowerback 5.11691 -8.35467 0.868604
upperback -0.465155 -11.4984 11.0381
thorax -1.15437 -6.04592 11.8441
lowerneck 12.5496 17.6178 18.8326
upperneck -29.2224 20.1285 -38.0406
head -3.53591 11.2808 -16.8314
rclavicle -1.59028e-015 6.04305e-014
rhumerus -94.4758 -11.5993 27.7896
rradius 11.0359
rwrist 38.9721
rhand -14.934 -0.051953
rfingers 7.12502
rthumb 11.2284 -29.7315
lclavicle -1.59028e-015 6.04305e-014
lhumerus 48.416 46.963 -3.98407
lradius 42.8431
lwrist 58.0678
lhand -22.1092 24.1155
lfingers 7.12502
lthumb 4.30328 54.0518
rfemur -47.9422 17.8694 -33.8394
rtibia 54.7495
rfoot -27.2918 -10.5123
rtoes -19.978
lfemur -7.59272 13.0704 -24.4055
ltibia 39.6903
lfoot -30.9019 -4.35612
ltoes -22.7136
1589
root 16.8742 15.5312 -0.16779 -136.101 -56.8592 140.609
lowerback 5.29478 -8.58857 1.03712
upperback -0.563904 -11.7799 11.0355
thorax -1.33621 -6.17998 11.7978
lowerneck 12.9071 17.5995 18.88
upperneck -29.2526 20.1626 -38.0803
head -3.58645 11.3307 -16.9087
rclavicle -7.31528e-014 -8.90555e-014
rhumerus -95.2208 -10.4141 32.7114
rradius 10.6129
rwrist 43.437
rhand -15.6799 -0.60383
rfingers 7.12502
rthumb 10.509 -30.3211
lclavicle -7.31528e-014 -8.90555e-014
lhumerus 47.1376 46.758 -5.17975
lradius 43.3553
lwrist 58.6084
lhand -21.9483 24.0455
lfingers 7.12502
lthumb 4.45866 53.9786
rfemur -47.7369 18.1928 -33.7848
rtibia 54.6984
rfoot -27.2822 -10.6622
rtoes -19.2167
lfemur -7.87318 13.4226 -24.2554
ltibia 40.5038
lfoot -30.9153 -4.74717
ltoes -20.5623
1590
root 16.8811 15.5169 -0.121477 -136.264 -57.0883 140.718
lowerback 5.39768 -8.74426 1.15251
upperback -0.696046 -11.9595 11.0469
thorax -1.519 -6.26141 11.787
lowerneck 12.979 17.5862 18.9709
upperneck -29.0207 20.2164 -38.1906
head -3.48506 11.3756 -16.9349
rclavicle -1.03368e-013 -7.31528e-014
rhumerus -95.7571 -9.23687 36.4052
rradius 10.3149
rwrist 46.9907
rhand -16.6294 -1.46934
rfingers 7.12502
rthumb 9.59292 -31.2309
lclavicle -1.03368e-013 -7.31528e-014
lhumerus 47.6782 46.7095 -4.76213
lradius 43.1318
lwrist 58.3272
lhand -21.3896 23.8642
lfingers 7.12502
lthumb 4.99814 53.7853
rfemur -47.6097 18.3982 -33.7649
rtibia 54.6472
rfoot -27.1795 -11.1539
rtoes -19.7298
lfemur -8.23218 13.7734 -24.1019
ltibia 41.222
lfoot -31.1192 -6.39517
ltoes -15.6202
1591
root 16.8937 15.492 -0.07465 -136.031 -57.0193 140.281
lowerback 5.69336 -8.85143 0.777128
upperback -0.900256 -12.0711 10.9565
thorax -1.82192 -6.29224 11.9797
lowerneck 13.3057 17.5693 18.9011
upperneck -29.0012 20.2032 -38.3189
head -3.53033 11.419 -17.0322
rclavicle 3.33958e-014 1.65389e-013
rhumerus -95.7135 -8.13107 36.4137
rradius 10.2493
rwrist 46.9589
rhand -17.5861 -2.28511
rfingers 7.12502
rthumb 8.66977 -32.0871
lclavicle 3.33958e-014 1.65389e-013
lhumerus 47.304 46.3907 -5.2166
lradius 43.3049
lwrist 58.6807
lhand -21.4513 23.7879
lfingers 7.12502
lthumb 4.93861 53.7104
rfemur -47.4729 18.5156 -34.1921
rtibia 54.6037
rfoot -26.9359 -11.5359
rtoes -20.591
lfemur -8.47233 14.096 -24.3918
ltibia 41.8145
lfoot -31.6028 -7.1939
ltoes -14.6823
1592
root 16.9029 15.4713 -0.0296888 -136.005 -57.0901 139.928
lowerback 5.65438 -8.52312 0.312896
upperback -0.121847 -11.802 11.2072
thorax -0.877393 -6.23808 12.4075
lowerneck 10.4202 18.1687 17.131
upperneck -28.7402 20.134 -38.2297
head -3.213 11.221 -16.2532
rclavicle 1.74931e-014 3.18055e-014
rhumerus -97.6736 -8.51736 39.5208
rradius 10.2891
rwrist 48.7506
rhand -18.1775 -3.01101
rfingers 7.12502
rthumb 8.09906 -32.8358
lclavicle 1.74931e-014 3.18055e-014
lhumerus 47.9818 48.1497 -3.94884
lradius 43.2987
lwrist 58.4752
lhand -21.758 23.8751
lfingers 7.12502
lthumb 4.64242 53.8042
rfemur -47.1424 18.7177 -34.4111
rtibia 54.5447
rfoot -26.827 -11.6998
rtoes -20.5548
lfemur -8.48679 14.2628 -24.5276
ltibia 42.3053
lfoot -31.8929 -7.89944
ltoes -12.7515
1593
root 16.9042 15.4665 0.0135731 -136.085 -57.5631 140.028
lowerback 5.49951 -8.45512 0.620855
upperback 0.0570994 -11.7419 11.3317
thorax -0.647282 -6.23113 12.325
lowerneck 9.26608 18.2907 16.4779
upperneck -28.5033 20.0177 -38.0954
head -3.08564 11.0853 -15.9301
rclavicle -1.19271e-013 8.90555e-014
rhumerus -98.9228 -7.90687 43.943
rradius 10.2778
rwrist 52.5015
rhand -18.6821 -3.69308
rfingers 7.12502
rthumb 7.61204 -33.5361
lclavicle -1.19271e-013 8.90555e-014
lhumerus 49.1284 48.8756 -2.71412
lradius 43.0638
lwrist 58.0482
lhand -21.4743 24.0059
lfingers 7.12502
lthumb 4.91641 53.9289
rfemur -46.8298 18.7368 -34.1343
rtibia 54.4562
rfoot -26.8447 -11.7532
rtoes -20.7856
lfemur -8.75354 14.1947 -24.2738
ltibia 42.7431
lfoot -32.0865 -8.45288
ltoes -9.62859
